<?xml version="1.0" standalone="no"?>
<!DOCTYPE svg PUBLIC "-//W3C//DTD SVG 20010904//EN"
 "http://www.w3.org/TR/2001/REC-SVG-20010904/DTD/svg10.dtd">
<svg version="1.0" xmlns="http://www.w3.org/2000/svg"
 width="512.000000pt" height="512.000000pt" viewBox="0 0 512.000000 512.000000"
 preserveAspectRatio="xMidYMid meet">
<metadata>
Created by potrace 1.11, written by Peter Selinger 2001-2013
</metadata>
<g transform="translate(0.000000,512.000000) scale(0.100000,-0.100000)"
fill="#000000" stroke="none">
<path d="M522 4441 l-402 -406 0 -1475 0 -1475 403 -403 402 -402 1878 0 1877
0 160 320 c88 176 160 322 160 325 0 3 -879 5 -1952 5 l-1953 0 -162 162 -163
163 0 1305 0 1306 163 162 163 162 1460 0 1459 0 168 -168 167 -167 0 -760 0
-760 -163 -163 -162 -162 -163 0 -162 0 0 845 0 845 -898 0 -897 0 -243 -243
-242 -242 0 -655 0 -655 243 -243 242 -242 458 0 457 0 0 280 0 280 -343 0
-342 0 -83 83 -82 82 0 400 0 400 98 98 97 97 488 0 487 0 0 -860 0 -860 523
0 522 0 408 408 407 407 0 895 0 895 -412 413 -412 412 -1626 -2 -1625 -1
-403 -406z"/>
</g>
</svg>
